<svg width="22" height="22" viewBox="0 0 22 22" fill="none" xmlns="http://www.w3.org/2000/svg">
<path fill-rule="evenodd" clip-rule="evenodd" d="M10.9998 1.81813C5.92884 1.81813 1.818 5.92897 1.818 10.9999C1.818 16.0709 5.92884 20.1818 10.9998 20.1818C16.0708 20.1818 20.1816 16.0709 20.1816 10.9999C20.1816 5.92897 16.0708 1.81813 10.9998 1.81813ZM0.181641 10.9999C0.181641 5.02523 5.02511 0.181763 10.9998 0.181763C16.9745 0.181763 21.818 5.02523 21.818 10.9999C21.818 16.9747 16.9745 21.8181 10.9998 21.8181C5.02511 21.8181 0.181641 16.9747 0.181641 10.9999Z" fill="#828A97"/>
<path fill-rule="evenodd" clip-rule="evenodd" d="M11.2887 6.84514C10.7809 6.75804 10.2586 6.85347 9.8144 7.11454C9.37018 7.37561 9.03269 7.78548 8.86171 8.27154C8.71176 8.6978 8.24464 8.9218 7.81838 8.77185C7.39212 8.6219 7.16812 8.15478 7.31807 7.72852C7.61729 6.87792 8.2079 6.16066 8.98528 5.70378C9.76267 5.2469 10.6767 5.0799 11.5654 5.23233C12.4541 5.38477 13.2602 5.84682 13.8409 6.53665C14.4214 7.22629 14.7392 8.09909 14.7381 9.00053C14.7378 10.4346 13.6731 11.3979 12.8737 11.9308C12.4491 12.2139 12.0303 12.4227 11.7209 12.5602C11.5651 12.6295 11.434 12.6819 11.3401 12.7177C11.293 12.7357 11.255 12.7495 11.2277 12.7592C11.214 12.7641 11.2029 12.7679 11.1947 12.7708L11.1845 12.7743L11.181 12.7754L11.1791 12.7761C11.1789 12.7761 11.1786 12.7762 10.9295 12.0289L11.1791 12.7761C10.7504 12.919 10.2866 12.6874 10.1437 12.2588C10.001 11.8305 10.232 11.3677 10.6598 11.2243C10.66 11.2242 10.6603 11.2241 10.6606 11.224C10.6606 11.224 10.6605 11.224 10.6606 11.224L10.6623 11.2234L10.6795 11.2174C10.6961 11.2115 10.7226 11.2019 10.7575 11.1886C10.8276 11.1619 10.931 11.1206 11.0563 11.0649C11.3094 10.9524 11.6407 10.7862 11.966 10.5693C12.6666 10.1022 13.1017 9.56568 13.1017 9.00003L13.1017 8.99881C13.1025 8.48355 12.9209 7.98465 12.589 7.59047C12.2572 7.19628 11.7966 6.93225 11.2887 6.84514ZM14.7381 9.00053C14.7381 9.00077 14.7381 9.00101 14.7381 9.00125L13.92 9.00003L14.7381 9.00053C14.7381 9.00036 14.7381 9.0007 14.7381 9.00053Z" fill="#828A97"/>
<path fill-rule="evenodd" clip-rule="evenodd" d="M9.90918 16C9.90918 15.3975 10.3976 14.9091 11.0001 14.9091H11.0099C11.6124 14.9091 12.1008 15.3975 12.1008 16C12.1008 16.6025 11.6124 17.0909 11.0099 17.0909H11.0001C10.3976 17.0909 9.90918 16.6025 9.90918 16Z" fill="#828A97"/>
</svg>
